<svg id="Layer_1" enable-background="new 0 0 512.013 512.013" height="512" viewBox="0 0 512.013 512.013" width="512" xmlns="http://www.w3.org/2000/svg" xmlns:xlink="http://www.w3.org/1999/xlink"><linearGradient id="SVGID_1_" gradientUnits="userSpaceOnUse" x1="0" x2="512.013" y1="256.006" y2="256.006"><stop offset="0" stop-color="#00f2fe"/><stop offset=".0208" stop-color="#03effe"/><stop offset=".2931" stop-color="#24d2fe"/><stop offset=".5538" stop-color="#3cbdfe"/><stop offset=".7956" stop-color="#4ab0fe"/><stop offset="1" stop-color="#4facfe"/></linearGradient><path d="m296.018 256.006c0 21.539-17.461 39-39 39s-39-17.461-39-39 17.461-39 39-39 39 17.461 39 39zm203.042 43.655c-3.833 5.887-10.241 9.088-16.778 9.088-3.742 0-7.526-1.049-10.896-3.243-9.256-6.028-11.873-18.418-5.846-27.674.39-.598.741-1.213 1.096-1.827h-97.376c-8.386 47.194-45.909 84.433-93.242 92.408v123.592c0 11.046-8.954 20-20 20s-20-8.954-20-20v-123.945c-46.387-8.674-82.974-45.527-91.242-92.054h-99.374c.38.657.762 1.313 1.183 1.952 26.661 40.533 77.002 92.691 138.335 117.52 10.239 4.145 15.178 15.805 11.034 26.043-3.149 7.779-10.639 12.5-18.545 12.5-2.499 0-5.039-.471-7.498-1.467-69.855-28.277-126.772-87.045-156.745-132.614-17.555-26.689-17.555-61.179 0-87.869 29.711-45.17 86.14-103.586 155.411-132.07 10.215-4.202 21.903.675 26.103 10.891 4.201 10.216-.675 21.902-10.891 26.103-60.85 25.021-110.773 76.875-137.204 117.058-.421.64-.803 1.296-1.183 1.953h99.374c8.268-46.527 44.855-83.38 91.242-92.054v-123.946c0-11.046 8.954-20 20-20s20 8.954 20 20v123.592c47.333 7.975 84.856 45.214 93.242 92.408h97.377c-.354-.613-.706-1.228-1.096-1.827-26.206-40.24-75.836-92.157-136.539-117.188-10.211-4.211-15.076-15.902-10.865-26.114 4.21-10.212 15.899-15.077 26.114-10.865 69.173 28.524 125.325 87.065 154.809 132.339 17.27 26.52 17.27 60.791 0 87.31zm-168.042-43.655c0-40.804-33.196-74-74-74s-74 33.196-74 74 33.196 74 74 74 74-33.196 74-74zm83.031 82.468c-27.457 25.764-56.453 44.945-86.183 57.012-10.235 4.154-15.165 15.818-11.01 26.053 3.154 7.772 10.638 12.484 18.539 12.484 2.504 0 5.052-.474 7.515-1.474 34.307-13.924 67.451-35.762 98.51-64.905 8.055-7.558 8.458-20.215.9-28.27-7.56-8.056-20.216-8.458-28.271-.9z" fill="url(#SVGID_1_)"/></svg>